<svg version="1.2" xmlns="http://www.w3.org/2000/svg" width="2666.667" height="2666.667"
     viewBox="0 0 2000.000000 2000.000000">
    <path d="M967.1 764.6c-35.9 5.2-67.1 20.3-92.7 44.7-38.5 36.7-61.7 88.3-71.1 157.7-2.6 19.5-2.6 76.6 0 96 6.9 50.4 21.6 92.8 43.8 125.6 16.6 24.7 39.9 46.3 63.9 59.2 16.8 9 39 15.9 59.1 18.2 13.3 1.6 43.2.8 54.9-1.3 33.7-6.3 61.5-20.7 86.4-44.7 37.6-36.4 60.5-87.3 70.1-156 2.2-15.6 3.1-63.4 1.6-81.1-7.7-87.4-41.6-155.4-95.9-192.3-19.9-13.5-42.9-22.4-67.4-26.1-12.2-1.9-39.8-1.8-52.7.1zm48.5 59c48.9 8.6 87.4 51.6 103.9 115.9 11 42.9 11.8 98.9 1.9 143.3-15.2 68.8-54.2 113.9-107.3 123.8-11.1 2.1-32.9 2.1-43.6 0-59.1-11.6-99.6-64.8-111.1-146.1-3.7-26.9-3.5-66.5.6-94.6 12.4-84.9 58.7-138.8 123.5-143.8 11.1-.9 21.5-.4 32.1 1.5z"/>
</svg>